PathFileType	4	(X/Y/Z)	s09c0202.trc
DataRate	CameraRate	NumFrames	NumMarkers	Units	OrigDataRate	OrigDataStartFrame	OrigNumFrames
200	200	5	50	mm	200	500	2000
Frame#	Time	racr			lacr			c7			jug			rlel			rdr			llel			ldr			s2			lic			ric			lasi			rasi			rpsi			lpsi			rgt			lgt			rth1			rth2			rth3			rth4			rlfc			rmfc			rsh1			rsh2			rsh3			rsh4			rlmal			rmmal			rcal			rtoe			rmt5			lth1			lth2			lth4			lth3			llfc			lmfc			llmal			lmmal			lcal			lmt5			lsh1			lsh2			lsh3			lsh4			ltoe			SBIKE			LBIKE			RBIKE			
		X1	Y1	Z1	X2	Y2	Z2	X3	Y3	Z3	X4	Y4	Z4	X5	Y5	Z5	X6	Y6	Z6	X7	Y7	Z7	X8	Y8	Z8	X9	Y9	Z9	X10	Y10	Z10	X11	Y11	Z11	X12	Y12	Z12	X13	Y13	Z13	X14	Y14	Z14	X15	Y15	Z15	X16	Y16	Z16	X17	Y17	Z17	X18	Y18	Z18	X19	Y19	Z19	X20	Y20	Z20	X21	Y21	Z21	X22	Y22	Z22	X23	Y23	Z23	X24	Y24	Z24	X25	Y25	Z25	X26	Y26	Z26	X27	Y27	Z27	X28	Y28	Z28	X29	Y29	Z29	X30	Y30	Z30	X31	Y31	Z31	X32	Y32	Z32	X33	Y33	Z33	X34	Y34	Z34	X35	Y35	Z35	X36	Y36	Z36	X37	Y37	Z37	X38	Y38	Z38	X39	Y39	Z39	X40	Y40	Z40	X41	Y41	Z41	X42	Y42	Z42	X43	Y43	Z43	X44	Y44	Z44	X45	Y45	Z45	X46	Y46	Z46	X47	Y47	Z47	X48	Y48	Z48	X49	Y49	Z49	X50	Y50	Z50	
500	2.5000	542.641658	1227.602362	-134.427959	523.861072	1202.417722	-468.276027	510.212526	1277.996801	-299.366160	480.810399	1138.983487	-292.320508	483.768236	1045.283424	35.340347	663.833308	908.325936	-44.249555	433.098799	955.804804	-572.500920	650.337776	906.253521	-451.390938	5.578941	1148.783817	-247.607806	133.819886	1131.480687	-403.642154	152.668862	1139.059849	-106.976054	174.906412	1071.131321	-380.458797	188.113793	1081.454567	-127.156038	40.094938	1177.931153	-190.588883	36.142598	1182.467465	-298.129773	127.369699	1006.572273	-57.930888	102.232887	1002.007094	-432.213758	233.298362	914.565045	-74.964144	309.185322	872.739276	-87.845937	349.520393	794.126684	-97.733417	328.744234	892.961711	-112.064451	385.766104	700.106516	-128.969871	355.248661	683.283520	-224.133060	305.274072	641.083396	-90.011452	256.142673	566.961546	-98.767849	177.236351	527.773638	-90.613787	270.616448	551.138577	-132.095462	99.888314	460.238889	-82.933539	103.014613	464.478770	-161.043583	14.221123	472.101873	-120.134298	218.354764	302.225318	-127.195660	146.145186	340.831133	-62.678358	205.214984	905.571797	-427.067872	281.076221	868.124593	-416.232739	305.421608	894.567697	-404.149444	329.826017	792.553187	-405.865683	389.362609	712.158096	-387.281312	396.751610	699.511928	-289.997430	328.680324	346.992217	-409.884527	337.914649	356.361658	-331.901506	269.246398	287.389451	-371.759280	442.618338	294.641358	-436.070165	370.836511	612.537825	-413.950902	379.214558	526.589199	-407.222605	342.905832	445.622483	-409.994977	402.435887	524.373120	-374.463273	526.012262	341.520865	-369.289920	-64.870539	851.500395	-241.226413	21.103714	83.704312	-442.367188	21.093170	84.041821	-44.029278	
501	2.5050	542.095910	1228.890299	-132.820653	525.717569	1202.896389	-467.323537	510.905977	1279.019536	-298.152289	481.819478	1140.060816	-291.251071	483.098877	1045.063496	35.306544	663.038502	908.208112	-44.600151	433.799018	957.080805	-572.396437	650.318368	906.290485	-450.643897	6.557792	1148.029987	-249.559360	135.623789	1130.525466	-404.904506	152.835774	1139.488827	-107.906205	176.629861	1070.334090	-381.080856	188.586940	1081.994853	-127.781416	40.492311	1177.663309	-192.530043	37.326150	1181.575545	-300.145986	128.389340	1007.663720	-58.915720	103.567241	1000.256749	-432.961646	235.316217	916.912207	-74.757901	311.743648	875.927444	-88.552398	353.091283	797.802854	-98.141252	330.913207	896.311687	-112.926035	389.968044	703.642324	-129.030629	359.575635	686.666649	-223.919501	308.873805	645.348061	-90.056424	258.970865	571.805899	-98.823239	179.580539	533.386122	-90.772120	273.267861	555.629999	-132.083311	101.677953	466.709527	-83.117901	105.158089	472.021329	-162.106543	16.048347	479.048792	-120.230085	219.203888	308.184471	-127.554303	147.336239	347.243961	-62.788560	205.288782	902.942369	-427.552242	280.537998	864.484955	-416.646098	305.278052	890.594809	-404.509588	328.273789	787.999970	-405.993849	386.976833	707.013600	-387.239969	394.206775	694.497059	-290.327109	328.322800	341.249045	-409.274321	337.379626	350.890850	-332.011785	268.635995	282.686506	-371.773722	442.056590	288.207437	-435.922981	368.822456	607.402299	-413.963201	377.796831	521.623597	-407.286042	342.053850	440.295322	-410.091351	400.960796	519.497921	-374.365502	526.211040	334.107041	-369.044068	-64.847918	851.547351	-241.296203	21.111551	83.693987	-442.371434	21.099223	84.050026	-44.024607	
502	2.5100	541.385405	1230.246149	-131.143568	527.498365	1203.578912	-466.319364	511.504557	1280.248413	-297.057918	482.745948	1141.314622	-290.093328	482.395652	1044.811030	35.243700	662.626920	908.109794	-45.092377	434.519042	958.456244	-572.287053	650.342818	906.351368	-450.003923	7.461371	1147.244978	-251.532624	137.387133	1129.503706	-406.066495	153.121028	1139.963832	-108.729140	178.332810	1069.561207	-381.679267	189.105995	1082.534308	-128.292368	40.876701	1177.363239	-194.314500	38.340843	1180.629722	-301.982653	129.420833	1008.820200	-59.861962	104.934879	998.580232	-433.746500	237.432782	919.186352	-76.387283	314.299676	879.226047	-89.797374	356.788272	801.535858	-98.362120	333.162642	899.674097	-113.846978	394.192619	707.258668	-129.156136	362.853256	689.854232	-223.022459	312.643720	649.524233	-90.150588	261.893329	576.610016	-98.884448	182.017793	539.165178	-90.849003	276.035165	560.265750	-132.210179	103.581805	473.220188	-83.257175	107.192014	478.375028	-162.458872	17.766863	486.139476	-120.327525	220.433085	314.440151	-127.657137	148.668122	353.624001	-62.969406	205.327473	900.253958	-428.046190	279.908310	860.938336	-417.137006	305.066703	886.408116	-404.921745	326.548232	783.561552	-406.151666	384.286830	701.927897	-387.296244	391.470367	689.369165	-290.703462	327.620517	335.943513	-409.309235	336.777725	345.305722	-332.174553	267.615752	277.969685	-372.006160	441.275775	281.740213	-435.831577	366.619323	602.206248	-414.096148	376.165066	516.486274	-407.387630	340.969886	434.938528	-410.227740	399.170584	514.502287	-374.560551	525.474814	326.425944	-368.394055	-64.805249	851.577659	-241.359721	21.117526	83.692912	-442.358276	21.118065	84.048044	-44.010928	
503	2.5150	540.586793	1231.607249	-129.361055	529.249593	1204.475628	-465.228146	511.966302	1281.550591	-295.886249	483.670803	1142.736207	-288.755192	481.747124	1044.277617	35.153992	662.276534	908.008157	-45.515895	435.386856	960.234680	-572.629186	650.462656	906.377718	-449.332741	8.404680	1146.474393	-253.393498	139.150630	1128.570436	-407.233605	153.229560	1140.548547	-109.565473	179.993705	1068.839442	-382.133310	189.685638	1083.142773	-128.838243	41.180421	1176.992635	-196.141406	39.289951	1179.699786	-303.760236	130.589275	1009.940331	-60.769446	106.314318	996.912072	-434.454709	239.511510	921.592553	-77.139145	316.890798	882.665534	-90.566210	360.291548	805.557458	-98.809136	335.338290	903.161268	-114.870144	398.424600	710.915307	-129.250820	368.671837	694.338846	-224.799767	316.417884	653.836824	-90.268286	264.820779	581.481570	-99.079266	184.672999	544.808127	-91.003743	278.889960	564.993220	-132.239499	105.670212	479.599857	-83.400677	108.579310	485.214954	-162.502046	19.797845	493.039272	-120.451509	222.059746	320.543996	-127.725390	150.012038	359.912152	-63.320025	205.338876	897.465877	-428.618710	279.250666	857.104168	-417.528952	304.818825	882.246478	-405.242237	324.631196	778.931840	-406.365709	381.426633	696.777867	-387.455483	388.439411	684.266874	-291.197432	326.561979	330.614799	-409.365267	335.940449	339.942142	-332.354882	266.420799	273.296795	-372.244312	440.201567	275.345146	-435.747609	364.086598	596.891807	-414.221662	374.163901	511.285136	-407.530143	339.544773	429.530454	-410.381209	397.184071	509.526709	-374.713749	524.839793	319.072149	-368.148157	-64.773502	851.588462	-241.412227	21.125750	83.667528	-442.355132	21.131494	84.040862	-44.008931	
504	2.5200	539.666071	1233.102424	-127.456740	531.023507	1205.422403	-464.080763	512.547064	1283.249240	-294.145794	484.534236	1144.418706	-287.448202	481.072695	1043.962034	35.036320	662.047034	907.914867	-45.867189	436.093997	961.984539	-572.506521	650.549670	906.377781	-448.887918	9.276626	1145.729089	-255.039945	140.767432	1127.661171	-408.314240	153.428244	1141.029590	-110.363960	181.640664	1068.206716	-382.618572	190.279941	1083.683846	-129.231833	41.541395	1176.604485	-197.850393	40.231588	1178.774448	-305.607046	131.794698	1011.183198	-61.653811	107.645499	995.280975	-435.130794	241.634716	924.124419	-77.841612	319.430765	885.939382	-91.408804	363.952808	809.445893	-99.145103	337.469306	906.600033	-115.660277	402.703518	714.722047	-129.443420	372.798192	697.895961	-225.067013	320.084660	658.023922	-90.675178	267.893599	586.450894	-99.225384	187.489147	550.468283	-91.186312	281.811136	569.646403	-132.376795	107.915050	486.082804	-83.489659	110.313118	490.590616	-161.605021	22.076089	499.864465	-120.478749	223.712250	326.729864	-127.823055	152.286016	366.586327	-63.184483	205.301303	894.734523	-429.206089	278.099365	853.320334	-418.842872	304.468994	877.917768	-405.675225	322.709348	774.313411	-406.609413	378.495516	691.457057	-387.433314	385.867289	678.955760	-291.701478	325.234582	325.273175	-409.330841	334.672949	334.511152	-332.572548	265.030141	268.586129	-372.402483	438.957353	268.836225	-435.307960	361.278601	591.574521	-414.519653	371.928401	506.033730	-407.791847	337.889227	424.125244	-410.549988	394.996454	504.526542	-374.981305	523.873584	311.798880	-367.866909	-64.712827	851.624079	-241.502378	21.146879	83.666406	-442.349019	21.147505	84.037681	-44.011867	
